<svg width="1102" height="324" viewBox="0 0 1102 324" fill="none" xmlns="http://www.w3.org/2000/svg">
<path d="M57 255L10.75 72.5H38.5L67.75 194C69.5833 201.167 71.1667 208.333 72.5 215.5C74 222.5 75.0833 228 75.75 232C76.4167 228 77.3333 222.5 78.5 215.5C79.8333 208.333 81.4167 201.083 83.25 193.75L112.25 72.5H139.25L92.75 255H57ZM224.902 257.25C213.569 257.25 203.736 255.083 195.402 250.75C187.069 246.417 180.652 240.25 176.152 232.25C171.652 224.25 169.402 214.833 169.402 204V168.5C169.402 157.5 171.652 148.083 176.152 140.25C180.652 132.25 187.069 126.083 195.402 121.75C203.736 117.417 213.569 115.25 224.902 115.25C236.236 115.25 246.069 117.417 254.402 121.75C262.736 126.083 269.152 132.25 273.652 140.25C278.152 148.083 280.402 157.5 280.402 168.5V204C280.402 214.833 278.152 224.25 273.652 232.25C269.152 240.25 262.736 246.417 254.402 250.75C246.069 255.083 236.236 257.25 224.902 257.25ZM224.902 233.5C234.069 233.5 241.152 231 246.152 226C251.152 220.833 253.652 213.5 253.652 204V168.5C253.652 158.833 251.152 151.5 246.152 146.5C241.152 141.5 234.069 139 224.902 139C215.902 139 208.819 141.5 203.652 146.5C198.652 151.5 196.152 158.833 196.152 168.5V204C196.152 213.5 198.652 220.833 203.652 226C208.819 231 215.902 233.5 224.902 233.5ZM325.305 255V117.5H351.305V143.75H357.805L349.555 160C349.555 145.167 352.805 134 359.305 126.5C365.805 118.833 375.471 115 388.305 115C402.971 115 414.555 119.583 423.055 128.75C431.721 137.75 436.055 150.167 436.055 166V175.25H408.305V168.25C408.305 158.417 405.805 150.917 400.805 145.75C395.971 140.417 389.138 137.75 380.305 137.75C371.471 137.75 364.555 140.417 359.555 145.75C354.721 151.083 352.305 158.583 352.305 168.25V255H325.305ZM539.707 255C527.207 255 517.457 251.583 510.457 244.75C503.457 237.917 499.957 228.417 499.957 216.25V142H461.957V117.5H499.957V78.75H526.957V117.5H580.707V142H526.957V216.25C526.957 225.75 531.54 230.5 540.707 230.5H578.207V255H539.707ZM660.859 257.5C646.526 257.5 635.193 253.833 626.859 246.5C618.693 239 614.609 228.833 614.609 216C614.609 203 618.943 192.833 627.609 185.5C636.443 178 648.526 174.25 663.859 174.25H702.109V161.5C702.109 154 699.776 148.167 695.109 144C690.443 139.833 683.859 137.75 675.359 137.75C667.859 137.75 661.609 139.417 656.609 142.75C651.609 145.917 648.693 150.167 647.859 155.5H621.359C622.859 143.167 628.526 133.333 638.359 126C648.359 118.667 660.943 115 676.109 115C692.443 115 705.359 119.167 714.859 127.5C724.359 135.667 729.109 146.833 729.109 161V255H702.859V229.75H698.359L702.859 224.75C702.859 234.75 699.026 242.75 691.359 248.75C683.693 254.583 673.526 257.5 660.859 257.5ZM668.859 236.75C678.526 236.75 686.443 234.333 692.609 229.5C698.943 224.5 702.109 218.167 702.109 210.5V192.5H664.359C657.359 192.5 651.776 194.417 647.609 198.25C643.609 202.083 641.609 207.333 641.609 214C641.609 221 644.026 226.583 648.859 230.75C653.693 234.75 660.359 236.75 668.859 236.75ZM792.512 300L812.262 247L761.012 117.5H790.762L819.512 195C820.678 198.333 821.845 202.333 823.012 207C824.178 211.667 825.178 215.5 826.012 218.5C826.678 215.5 827.595 211.667 828.762 207C829.928 202.333 831.095 198.333 832.262 195L859.262 117.5H888.012L821.012 300H792.512ZM994.164 255C985.664 255 978.247 253.333 971.914 250C965.581 246.5 960.581 241.583 956.914 235.25C953.414 228.917 951.664 221.583 951.664 213.25V97H906.664V72.5H978.664V213.25C978.664 218.583 980.164 222.833 983.164 226C986.164 229 990.247 230.5 995.414 230.5H1037.91V255H994.164Z" fill="white"/>
</svg>
